<?xml version="1.0" encoding="UTF-8"?>
  <svg id="Calque_1" xmlns="http://www.w3.org/2000/svg" viewBox="0 0 157.48 168.68">
    <path d="M78.68,0c2.32,.07,3.79,1.82,4.01,4.59,.42,5.5,.63,11.04,1.39,16.5,4.12,29.46,23.24,50.19,52.39,56.71,4.95,1.11,10.08,1.42,15.13,2.12,.82,.11,1.67,.18,2.44,.44,2.29,.76,3.77,2.73,3.37,4.65-.46,2.23-2.04,3.32-4.27,3.58-4.98,.6-10.03,.87-14.91,1.92-15.65,3.35-29.25,10.44-39.54,23.04-8.39,10.28-12.77,22.27-14.51,35.28-.65,4.88-.78,9.83-1.09,14.76-.12,1.94-.56,3.68-2.44,4.63-2.81,1.42-5.69-.57-5.95-4.2-.28-3.84-.24-7.71-.64-11.53-1.73-16.4-6.98-31.34-18.8-43.33-10.46-10.61-23.43-16.48-37.91-19.15-3.94-.73-7.97-.95-11.96-1.33-3.86-.37-5.48-1.69-5.37-4.53,.1-2.62,1.99-4.07,5.52-4.21,11.88-.47,23.11-3.39,33.66-8.93,15.99-8.39,26.17-21.49,31.39-38.64,2.73-8.97,3.6-18.19,3.86-27.51,.09-3.13,1.76-4.93,4.24-4.85Zm-.12,35.81c-8.16,24.61-25.15,40-49.8,48.34,24.66,8.33,41.68,23.77,49.81,49.16,8.13-25.46,25.17-40.82,49.78-49.16-24.59-8.31-41.61-23.69-49.79-48.34Z"/>
</svg>