<?xml version="1.0" standalone="no"?>
<!DOCTYPE svg PUBLIC "-//W3C//DTD SVG 20010904//EN"
 "http://www.w3.org/TR/2001/REC-SVG-20010904/DTD/svg10.dtd">
<svg version="1.0" xmlns="http://www.w3.org/2000/svg"
 width="380.000000pt" height="380.000000pt" viewBox="0 0 380.000000 380.000000"
 preserveAspectRatio="xMidYMid meet">
<metadata>
Created by potrace 1.14, written by Peter Selinger 2001-2017
</metadata>
<g transform="translate(0.000000,380.000000) scale(0.100000,-0.100000)"
fill="#000000" stroke="none">
<path d="M1550 3760 c-295 -44 -588 -161 -801 -319 -101 -75 -114 -86 -198
-166 -291 -277 -476 -636 -535 -1040 -13 -90 -14 -418 -2 -480 8 -38 25 -123
30 -152 24 -124 109 -341 184 -472 109 -189 279 -390 432 -511 30 -24 66 -55
80 -69 23 -24 72 -68 146 -132 199 -171 566 -336 829 -374 23 -3 52 -8 65 -11
42 -10 372 -13 435 -4 33 5 80 11 105 14 117 16 353 91 491 157 223 107 443
282 602 477 177 218 296 470 354 751 41 201 40 463 -2 676 -49 245 -195 555
-344 727 -15 18 -44 61 -65 95 -54 90 -163 228 -245 310 -105 105 -303 263
-331 263 -5 0 -10 5 -10 10 0 6 -4 10 -9 10 -6 0 -36 15 -68 34 -134 78 -387
168 -550 196 -35 6 -75 13 -90 16 -16 3 -109 7 -208 9 -134 2 -209 -1 -295
-15z"/>
</g>
</svg>
